<?xml version="1.0" standalone="no"?>
<!DOCTYPE svg PUBLIC "-//W3C//DTD SVG 20010904//EN"
 "http://www.w3.org/TR/2001/REC-SVG-20010904/DTD/svg10.dtd">
<svg version="1.0" xmlns="http://www.w3.org/2000/svg"
 width="327.000000pt" height="147.000000pt" viewBox="0 0 327.000000 147.000000"
 preserveAspectRatio="xMidYMid meet">

<g transform="translate(0.000000,147.000000) scale(0.100000,-0.100000)"
fill="#000000" stroke="none">
<path d="M260 1160 c0 -5 -7 -10 -15 -10 -13 0 -15 -45 -15 -341 0 -224 3
-338 10 -334 6 4 11 128 12 333 l3 327 5 -270 5 -270 3 266 2 266 98 6 c53 4
217 7 365 7 l267 0 0 -70 c0 -40 4 -70 10 -70 6 0 10 32 10 75 l0 75 -377 2
c-300 2 -341 3 -198 8 l180 6 -182 2 c-117 1 -183 -2 -183 -8z"/>
<path d="M942 1163 l87 -4 4 -82 3 -82 2 88 2 87 -92 -2 -93 -2 87 -3z"/>
<path d="M1753 923 c-18 -2 -33 -8 -33 -13 0 -5 7 -7 15 -4 11 5 13 2 9 -10
-3 -9 -9 -14 -14 -11 -8 5 -20 -117 -20 -212 l0 -63 40 0 40 0 0 68 c0 38 3
110 6 160 4 53 3 91 -2 90 -5 0 -24 -3 -41 -5z"/>
<path d="M2598 915 c-80 -44 -94 -254 -19 -295 59 -31 129 9 150 86 41 148
-31 263 -131 209z m68 -138 c-9 -90 -36 -125 -56 -73 -11 30 3 131 22 153 10
13 14 13 26 -4 10 -13 12 -34 8 -76z"/>
<path d="M594 909 l-41 -10 -7 -67 c-3 -37 -6 -102 -6 -144 l0 -78 35 0 c35 0
35 1 35 43 0 42 0 43 46 55 65 18 94 53 94 114 0 39 -5 54 -25 73 -26 27 -58
30 -131 14z m84 -86 c3 -19 -29 -53 -50 -53 -10 0 -11 64 -1 74 14 14 48 1 51
-21z m-121 -190 c-3 -10 -5 -2 -5 17 0 19 2 27 5 18 2 -10 2 -26 0 -35z"/>
<path d="M794 909 c-4 -7 -9 -77 -12 -157 l-5 -145 78 6 c43 4 89 7 102 7 20
0 23 5 23 35 l0 35 -66 0 c-57 0 -65 2 -62 18 2 12 18 20 56 26 52 9 53 10 50
40 -3 30 -4 31 -50 28 -43 -3 -48 -1 -48 16 0 18 9 21 65 27 l65 7 0 34 0 34
-94 0 c-61 0 -97 -4 -102 -11z"/>
<path d="M1059 891 c-37 -38 -41 -101 -7 -129 74 -60 83 -71 70 -83 -10 -11
-19 -10 -49 0 -33 12 -38 12 -50 -5 -19 -27 -16 -34 22 -50 57 -23 102 -18
136 15 49 50 36 107 -37 151 -25 16 -34 28 -32 43 5 31 28 34 28 3 0 -23 4
-26 35 -26 34 0 35 1 35 39 0 49 -26 71 -83 71 -29 0 -46 -7 -68 -29z"/>
<path d="M1281 895 c-39 -33 -54 -82 -49 -160 6 -95 54 -138 126 -114 27 9 37
9 40 0 6 -18 20 -13 38 14 12 19 14 28 5 39 -8 9 -8 28 0 67 27 136 -70 229
-160 154z m87 -93 c2 -41 0 -52 -12 -52 -8 0 -22 -10 -30 -22 -24 -34 -30 -14
-16 54 14 75 17 80 38 76 13 -2 18 -16 20 -56z m-43 -112 c3 -5 1 -10 -4 -10
-6 0 -11 5 -11 10 0 6 2 10 4 10 3 0 8 -4 11 -10z"/>
<path d="M1492 890 c3 -16 1 -30 -4 -30 -14 0 -10 -204 5 -224 17 -23 88 -32
126 -16 54 22 65 52 69 183 l4 117 -36 0 -36 0 -1 -67 c0 -38 -4 -88 -7 -113
-6 -40 -10 -45 -32 -45 l-25 0 3 113 3 112 -36 0 c-36 0 -37 -1 -33 -30z"/>
<path d="M1873 908 c-23 -11 -53 -64 -53 -93 0 -28 19 -54 60 -80 63 -40 45
-84 -19 -50 -31 15 -31 15 -43 -11 -11 -23 -10 -28 7 -40 10 -8 33 -17 52 -20
72 -14 123 22 123 84 0 34 -7 45 -50 84 -35 32 -48 51 -44 62 9 22 28 15 32
-12 3 -17 10 -22 33 -22 17 0 32 6 35 15 8 21 -3 60 -22 79 -18 18 -78 20
-111 4z"/>
<path d="M2111 882 c-20 -39 -91 -244 -91 -263 0 -6 18 -9 43 -7 34 2 43 7 45
25 2 15 13 24 32 28 37 8 50 0 50 -31 0 -21 4 -24 40 -24 35 0 40 3 40 23 0
41 -48 258 -60 272 -7 8 -28 15 -46 15 -29 0 -36 -5 -53 -38z m59 -117 c0 -16
-6 -25 -16 -25 -11 0 -14 5 -10 16 3 9 6 20 6 25 0 5 5 9 10 9 6 0 10 -11 10
-25z m70 -106 c0 -11 -4 -17 -10 -14 -5 3 -10 15 -10 26 0 11 5 17 10 14 6 -3
10 -15 10 -26z"/>
<path d="M2333 913 c-20 -4 -22 -12 -27 -111 -4 -59 -8 -126 -10 -149 l-4 -43
53 0 c37 0 62 6 86 23 77 51 106 193 53 256 -23 28 -31 31 -77 30 -29 -1 -62
-4 -74 -6z m99 -88 c14 -31 -2 -93 -33 -120 -23 -22 -38 -9 -33 28 2 12 6 43
9 70 5 38 10 47 26 47 11 0 24 -11 31 -25z"/>
<path d="M2808 913 c-26 -4 -26 -7 -33 -91 -3 -48 -7 -114 -8 -147 l-2 -60 32
-3 c31 -3 32 -3 35 45 4 61 24 63 55 8 12 -22 24 -44 26 -49 2 -6 18 0 36 13
l32 23 -24 43 -25 43 21 20 c12 13 22 38 25 70 8 83 -36 105 -170 85z m102
-75 c0 -7 -4 -18 -8 -24 -7 -11 -45 -34 -56 -34 -8 0 -7 55 1 63 12 12 63 7
63 -5z"/>
<path d="M1000 465 l0 -65 -307 -2 -308 -3 310 -5 310 -5 -350 -4 c-217 -2
-331 -7 -300 -11 28 -5 188 -9 358 -9 267 -1 307 1 307 14 0 8 5 15 10 15 6 0
9 28 8 68 l-1 67 -7 -65 -7 -65 -1 68 c-2 86 -22 89 -22 2z"/>
</g>
</svg>
